<svg xmlns="http://www.w3.org/2000/svg" xmlns:xlink="http://www.w3.org/1999/xlink" width="200" zoomAndPan="magnify" viewBox="0 0 150 44.999999" height="60" preserveAspectRatio="xMidYMid meet" version="1.0"><defs><g/><clipPath id="28c59139ca"><path d="M 46 9 L 114.558594 9 L 114.558594 25 L 46 25 Z M 46 9 " clip-rule="nonzero"/></clipPath><clipPath id="29318f5eb4"><rect x="0" width="69" y="0" height="16"/></clipPath><clipPath id="6592e6b226"><path d="M 0.558594 0.238281 L 50 0.238281 L 50 39 L 0.558594 39 Z M 0.558594 0.238281 " clip-rule="nonzero"/></clipPath><clipPath id="4f314b5a22"><path d="M 0.558594 0.238281 L 43 0.238281 L 43 26 L 0.558594 26 Z M 0.558594 0.238281 " clip-rule="nonzero"/></clipPath><clipPath id="f53fb0bab4"><rect x="0" width="50" y="0" height="39"/></clipPath><clipPath id="073b3e4689"><rect x="0" width="115" y="0" height="39"/></clipPath><clipPath id="ee9b97064d"><path d="M 0.761719 0.570312 L 26.179688 0.570312 L 26.179688 25.125 L 0.761719 25.125 Z M 0.761719 0.570312 " clip-rule="nonzero"/></clipPath><clipPath id="fc430adf5e"><path d="M 3.011719 0.570312 L 23.847656 0.570312 C 24.445312 0.570312 25.019531 0.804688 25.441406 1.226562 C 25.863281 1.648438 26.097656 2.222656 26.097656 2.820312 L 26.097656 22.875 C 26.097656 23.472656 25.863281 24.042969 25.441406 24.464844 C 25.019531 24.886719 24.445312 25.125 23.847656 25.125 L 3.011719 25.125 C 2.414062 25.125 1.84375 24.886719 1.421875 24.464844 C 1 24.042969 0.761719 23.472656 0.761719 22.875 L 0.761719 2.820312 C 0.761719 2.222656 1 1.648438 1.421875 1.226562 C 1.84375 0.804688 2.414062 0.570312 3.011719 0.570312 Z M 3.011719 0.570312 " clip-rule="nonzero"/></clipPath><clipPath id="dc7001cb0c"><path d="M 0.761719 0.570312 L 26.085938 0.570312 L 26.085938 25.125 L 0.761719 25.125 Z M 0.761719 0.570312 " clip-rule="nonzero"/></clipPath><clipPath id="198eb3a62d"><path d="M 3.011719 0.570312 L 23.847656 0.570312 C 24.445312 0.570312 25.019531 0.804688 25.441406 1.226562 C 25.863281 1.648438 26.097656 2.222656 26.097656 2.820312 L 26.097656 22.875 C 26.097656 23.472656 25.863281 24.042969 25.441406 24.464844 C 25.019531 24.886719 24.445312 25.125 23.847656 25.125 L 3.011719 25.125 C 2.414062 25.125 1.84375 24.886719 1.421875 24.464844 C 1 24.042969 0.761719 23.472656 0.761719 22.875 L 0.761719 2.820312 C 0.761719 2.222656 1 1.648438 1.421875 1.226562 C 1.84375 0.804688 2.414062 0.570312 3.011719 0.570312 Z M 3.011719 0.570312 " clip-rule="nonzero"/></clipPath><linearGradient x1="2.036847" gradientTransform="matrix(0.095918, 0, 0, 0.095918, 0.762585, 0.569376)" y1="-2.035153" x2="262.036841" gradientUnits="userSpaceOnUse" y2="257.964851" id="26e16ec007"><stop stop-opacity="1" stop-color="rgb(36.468506%, 87.838745%, 90.19928%)" offset="0"/><stop stop-opacity="1" stop-color="rgb(36.186218%, 87.641907%, 90.150452%)" offset="0.00390625"/><stop stop-opacity="1" stop-color="rgb(35.905457%, 87.446594%, 90.101624%)" offset="0.0078125"/><stop stop-opacity="1" stop-color="rgb(35.623169%, 87.251282%, 90.05127%)" offset="0.0117187"/><stop stop-opacity="1" stop-color="rgb(35.342407%, 87.055969%, 90.002441%)" offset="0.015625"/><stop stop-opacity="1" stop-color="rgb(35.06012%, 86.859131%, 89.953613%)" offset="0.0195312"/><stop stop-opacity="1" stop-color="rgb(34.777832%, 86.663818%, 89.904785%)" offset="0.0234375"/><stop stop-opacity="1" stop-color="rgb(34.495544%, 86.46698%, 89.855957%)" offset="0.0273438"/><stop stop-opacity="1" stop-color="rgb(34.214783%, 86.271667%, 89.807129%)" offset="0.03125"/><stop stop-opacity="1" stop-color="rgb(33.932495%, 86.074829%, 89.756775%)" offset="0.0351563"/><stop stop-opacity="1" stop-color="rgb(33.651733%, 85.879517%, 89.707947%)" offset="0.0390625"/><stop stop-opacity="1" stop-color="rgb(33.369446%, 85.682678%, 89.659119%)" offset="0.0429688"/><stop stop-opacity="1" stop-color="rgb(33.087158%, 85.487366%, 89.610291%)" offset="0.046875"/><stop stop-opacity="1" stop-color="rgb(32.804871%, 85.290527%, 89.561462%)" offset="0.0507812"/><stop stop-opacity="1" stop-color="rgb(32.524109%, 85.095215%, 89.512634%)" offset="0.0546875"/><stop stop-opacity="1" stop-color="rgb(32.241821%, 84.898376%, 89.463806%)" offset="0.0585938"/><stop stop-opacity="1" stop-color="rgb(31.959534%, 84.703064%, 89.414978%)" offset="0.0625"/><stop stop-opacity="1" stop-color="rgb(31.677246%, 84.507751%, 89.364624%)" offset="0.0664062"/><stop stop-opacity="1" stop-color="rgb(31.396484%, 84.312439%, 89.315796%)" offset="0.0703125"/><stop stop-opacity="1" stop-color="rgb(31.114197%, 84.115601%, 89.266968%)" offset="0.0742188"/><stop stop-opacity="1" stop-color="rgb(30.833435%, 83.920288%, 89.21814%)" offset="0.078125"/><stop stop-opacity="1" stop-color="rgb(30.551147%, 83.72345%, 89.169312%)" offset="0.0820312"/><stop stop-opacity="1" stop-color="rgb(30.26886%, 83.528137%, 89.120483%)" offset="0.0859375"/><stop stop-opacity="1" stop-color="rgb(29.986572%, 83.331299%, 89.070129%)" offset="0.0898438"/><stop stop-opacity="1" stop-color="rgb(29.705811%, 83.135986%, 89.021301%)" offset="0.09375"/><stop stop-opacity="1" stop-color="rgb(29.423523%, 82.939148%, 88.972473%)" offset="0.0976563"/><stop stop-opacity="1" stop-color="rgb(29.142761%, 82.743835%, 88.923645%)" offset="0.101563"/><stop stop-opacity="1" stop-color="rgb(28.860474%, 82.546997%, 88.874817%)" offset="0.105469"/><stop stop-opacity="1" stop-color="rgb(28.578186%, 82.351685%, 88.825989%)" offset="0.109375"/><stop stop-opacity="1" stop-color="rgb(28.295898%, 82.154846%, 88.777161%)" offset="0.113281"/><stop stop-opacity="1" stop-color="rgb(28.015137%, 81.959534%, 88.728333%)" offset="0.117188"/><stop stop-opacity="1" stop-color="rgb(27.732849%, 81.764221%, 88.677979%)" offset="0.121094"/><stop stop-opacity="1" stop-color="rgb(27.452087%, 81.568909%, 88.62915%)" offset="0.125"/><stop stop-opacity="1" stop-color="rgb(27.1698%, 81.37207%, 88.580322%)" offset="0.128906"/><stop stop-opacity="1" stop-color="rgb(26.887512%, 81.176758%, 88.531494%)" offset="0.132812"/><stop stop-opacity="1" stop-color="rgb(26.605225%, 80.979919%, 88.482666%)" offset="0.136719"/><stop stop-opacity="1" stop-color="rgb(26.324463%, 80.784607%, 88.433838%)" offset="0.140625"/><stop stop-opacity="1" stop-color="rgb(26.042175%, 80.587769%, 88.383484%)" offset="0.144531"/><stop stop-opacity="1" stop-color="rgb(25.761414%, 80.392456%, 88.334656%)" offset="0.148438"/><stop stop-opacity="1" stop-color="rgb(25.479126%, 80.195618%, 88.285828%)" offset="0.152344"/><stop stop-opacity="1" stop-color="rgb(25.196838%, 80.000305%, 88.237%)" offset="0.15625"/><stop stop-opacity="1" stop-color="rgb(24.914551%, 79.803467%, 88.188171%)" offset="0.160156"/><stop stop-opacity="1" stop-color="rgb(24.633789%, 79.608154%, 88.139343%)" offset="0.164062"/><stop stop-opacity="1" stop-color="rgb(24.351501%, 79.412842%, 88.090515%)" offset="0.167969"/><stop stop-opacity="1" stop-color="rgb(24.069214%, 79.217529%, 88.041687%)" offset="0.171875"/><stop stop-opacity="1" stop-color="rgb(23.786926%, 79.020691%, 87.991333%)" offset="0.175781"/><stop stop-opacity="1" stop-color="rgb(23.506165%, 78.825378%, 87.942505%)" offset="0.179688"/><stop stop-opacity="1" stop-color="rgb(23.223877%, 78.62854%, 87.893677%)" offset="0.183594"/><stop stop-opacity="1" stop-color="rgb(22.943115%, 78.433228%, 87.844849%)" offset="0.1875"/><stop stop-opacity="1" stop-color="rgb(22.660828%, 78.236389%, 87.796021%)" offset="0.191406"/><stop stop-opacity="1" stop-color="rgb(22.37854%, 78.041077%, 87.747192%)" offset="0.195313"/><stop stop-opacity="1" stop-color="rgb(22.096252%, 77.844238%, 87.696838%)" offset="0.199219"/><stop stop-opacity="1" stop-color="rgb(21.815491%, 77.648926%, 87.64801%)" offset="0.203125"/><stop stop-opacity="1" stop-color="rgb(21.533203%, 77.452087%, 87.599182%)" offset="0.207031"/><stop stop-opacity="1" stop-color="rgb(21.252441%, 77.256775%, 87.550354%)" offset="0.210937"/><stop stop-opacity="1" stop-color="rgb(20.970154%, 77.059937%, 87.501526%)" offset="0.214844"/><stop stop-opacity="1" stop-color="rgb(20.687866%, 76.864624%, 87.452698%)" offset="0.21875"/><stop stop-opacity="1" stop-color="rgb(20.405579%, 76.669312%, 87.40387%)" offset="0.222656"/><stop stop-opacity="1" stop-color="rgb(20.124817%, 76.473999%, 87.355042%)" offset="0.226562"/><stop stop-opacity="1" stop-color="rgb(19.842529%, 76.277161%, 87.304688%)" offset="0.230469"/><stop stop-opacity="1" stop-color="rgb(19.561768%, 76.081848%, 87.255859%)" offset="0.234375"/><stop stop-opacity="1" stop-color="rgb(19.27948%, 75.88501%, 87.207031%)" offset="0.238281"/><stop stop-opacity="1" stop-color="rgb(18.997192%, 75.689697%, 87.158203%)" offset="0.242188"/><stop stop-opacity="1" stop-color="rgb(18.714905%, 75.492859%, 87.109375%)" offset="0.246094"/><stop stop-opacity="1" stop-color="rgb(18.434143%, 75.297546%, 87.060547%)" offset="0.25"/><stop stop-opacity="1" stop-color="rgb(18.151855%, 75.100708%, 87.010193%)" offset="0.253906"/><stop stop-opacity="1" stop-color="rgb(17.871094%, 74.905396%, 86.961365%)" offset="0.257812"/><stop stop-opacity="1" stop-color="rgb(17.588806%, 74.708557%, 86.912537%)" offset="0.261719"/><stop stop-opacity="1" stop-color="rgb(17.306519%, 74.513245%, 86.863708%)" offset="0.265625"/><stop stop-opacity="1" stop-color="rgb(17.024231%, 74.316406%, 86.81488%)" offset="0.269531"/><stop stop-opacity="1" stop-color="rgb(16.743469%, 74.121094%, 86.766052%)" offset="0.273438"/><stop stop-opacity="1" stop-color="rgb(16.461182%, 73.925781%, 86.717224%)" offset="0.277344"/><stop stop-opacity="1" stop-color="rgb(16.178894%, 73.730469%, 86.668396%)" offset="0.28125"/><stop stop-opacity="1" stop-color="rgb(15.896606%, 73.53363%, 86.618042%)" offset="0.285156"/><stop stop-opacity="1" stop-color="rgb(15.615845%, 73.338318%, 86.569214%)" offset="0.289063"/><stop stop-opacity="1" stop-color="rgb(15.333557%, 73.141479%, 86.520386%)" offset="0.292969"/><stop stop-opacity="1" stop-color="rgb(15.052795%, 72.946167%, 86.471558%)" offset="0.296875"/><stop stop-opacity="1" stop-color="rgb(14.770508%, 72.749329%, 86.422729%)" offset="0.300781"/><stop stop-opacity="1" stop-color="rgb(14.48822%, 72.554016%, 86.373901%)" offset="0.304688"/><stop stop-opacity="1" stop-color="rgb(14.205933%, 72.357178%, 86.323547%)" offset="0.308594"/><stop stop-opacity="1" stop-color="rgb(13.925171%, 72.161865%, 86.274719%)" offset="0.3125"/><stop stop-opacity="1" stop-color="rgb(13.642883%, 71.965027%, 86.225891%)" offset="0.316406"/><stop stop-opacity="1" stop-color="rgb(13.362122%, 71.769714%, 86.177063%)" offset="0.320312"/><stop stop-opacity="1" stop-color="rgb(13.079834%, 71.572876%, 86.128235%)" offset="0.324219"/><stop stop-opacity="1" stop-color="rgb(12.797546%, 71.377563%, 86.079407%)" offset="0.328125"/><stop stop-opacity="1" stop-color="rgb(12.515259%, 71.182251%, 86.030579%)" offset="0.332031"/><stop stop-opacity="1" stop-color="rgb(12.234497%, 70.986938%, 85.98175%)" offset="0.335938"/><stop stop-opacity="1" stop-color="rgb(11.952209%, 70.7901%, 85.931396%)" offset="0.339844"/><stop stop-opacity="1" stop-color="rgb(11.671448%, 70.594788%, 85.882568%)" offset="0.34375"/><stop stop-opacity="1" stop-color="rgb(11.38916%, 70.397949%, 85.83374%)" offset="0.347656"/><stop stop-opacity="1" stop-color="rgb(11.106873%, 70.202637%, 85.784912%)" offset="0.351562"/><stop stop-opacity="1" stop-color="rgb(10.824585%, 70.005798%, 85.736084%)" offset="0.355469"/><stop stop-opacity="1" stop-color="rgb(10.543823%, 69.810486%, 85.687256%)" offset="0.359375"/><stop stop-opacity="1" stop-color="rgb(10.261536%, 69.613647%, 85.636902%)" offset="0.363281"/><stop stop-opacity="1" stop-color="rgb(9.980774%, 69.418335%, 85.588074%)" offset="0.367188"/><stop stop-opacity="1" stop-color="rgb(9.698486%, 69.221497%, 85.539246%)" offset="0.371094"/><stop stop-opacity="1" stop-color="rgb(9.416199%, 69.026184%, 85.490417%)" offset="0.375"/><stop stop-opacity="1" stop-color="rgb(9.133911%, 68.830872%, 85.441589%)" offset="0.378906"/><stop stop-opacity="1" stop-color="rgb(8.853149%, 68.635559%, 85.392761%)" offset="0.382813"/><stop stop-opacity="1" stop-color="rgb(8.570862%, 68.438721%, 85.342407%)" offset="0.386719"/><stop stop-opacity="1" stop-color="rgb(8.288574%, 68.243408%, 85.293579%)" offset="0.390625"/><stop stop-opacity="1" stop-color="rgb(8.006287%, 68.04657%, 85.244751%)" offset="0.394531"/><stop stop-opacity="1" stop-color="rgb(7.725525%, 67.851257%, 85.195923%)" offset="0.398438"/><stop stop-opacity="1" stop-color="rgb(7.443237%, 67.654419%, 85.147095%)" offset="0.402344"/><stop stop-opacity="1" stop-color="rgb(7.162476%, 67.459106%, 85.098267%)" offset="0.40625"/><stop stop-opacity="1" stop-color="rgb(6.880188%, 67.262268%, 85.049438%)" offset="0.410156"/><stop stop-opacity="1" stop-color="rgb(6.5979%, 67.066956%, 85.00061%)" offset="0.414063"/><stop stop-opacity="1" stop-color="rgb(6.315613%, 66.870117%, 84.950256%)" offset="0.417969"/><stop stop-opacity="1" stop-color="rgb(6.034851%, 66.674805%, 84.901428%)" offset="0.421875"/><stop stop-opacity="1" stop-color="rgb(5.752563%, 66.477966%, 84.8526%)" offset="0.425781"/><stop stop-opacity="1" stop-color="rgb(5.471802%, 66.282654%, 84.803772%)" offset="0.429688"/><stop stop-opacity="1" stop-color="rgb(5.189514%, 66.087341%, 84.754944%)" offset="0.433594"/><stop stop-opacity="1" stop-color="rgb(4.907227%, 65.892029%, 84.706116%)" offset="0.4375"/><stop stop-opacity="1" stop-color="rgb(4.624939%, 65.69519%, 84.655762%)" offset="0.441406"/><stop stop-opacity="1" stop-color="rgb(4.344177%, 65.499878%, 84.606934%)" offset="0.445312"/><stop stop-opacity="1" stop-color="rgb(4.06189%, 65.30304%, 84.558105%)" offset="0.449219"/><stop stop-opacity="1" stop-color="rgb(3.781128%, 65.107727%, 84.509277%)" offset="0.453125"/><stop stop-opacity="1" stop-color="rgb(3.49884%, 64.910889%, 84.460449%)" offset="0.457031"/><stop stop-opacity="1" stop-color="rgb(3.216553%, 64.715576%, 84.411621%)" offset="0.460938"/><stop stop-opacity="1" stop-color="rgb(2.934265%, 64.518738%, 84.362793%)" offset="0.464844"/><stop stop-opacity="1" stop-color="rgb(2.653503%, 64.323425%, 84.313965%)" offset="0.46875"/><stop stop-opacity="1" stop-color="rgb(2.371216%, 64.126587%, 84.263611%)" offset="0.472656"/><stop stop-opacity="1" stop-color="rgb(2.090454%, 63.931274%, 84.214783%)" offset="0.476563"/><stop stop-opacity="1" stop-color="rgb(1.808167%, 63.734436%, 84.165955%)" offset="0.480469"/><stop stop-opacity="1" stop-color="rgb(1.525879%, 63.539124%, 84.117126%)" offset="0.484375"/><stop stop-opacity="1" stop-color="rgb(1.243591%, 63.343811%, 84.068298%)" offset="0.488281"/><stop stop-opacity="1" stop-color="rgb(0.96283%, 63.148499%, 84.01947%)" offset="0.492188"/><stop stop-opacity="1" stop-color="rgb(0.680542%, 62.95166%, 83.969116%)" offset="0.496094"/><stop stop-opacity="1" stop-color="rgb(0.398254%, 62.756348%, 83.920288%)" offset="0.5"/><stop stop-opacity="1" stop-color="rgb(0.405884%, 62.600708%, 83.834839%)" offset="0.507692"/><stop stop-opacity="1" stop-color="rgb(0.413513%, 62.445068%, 83.74939%)" offset="0.515625"/><stop stop-opacity="1" stop-color="rgb(0.42572%, 62.290955%, 83.662415%)" offset="0.53125"/><stop stop-opacity="1" stop-color="rgb(0.450134%, 61.985779%, 83.491516%)" offset="0.546875"/><stop stop-opacity="1" stop-color="rgb(0.474548%, 61.679077%, 83.320618%)" offset="0.5625"/><stop stop-opacity="1" stop-color="rgb(0.500488%, 61.372375%, 83.148193%)" offset="0.578125"/><stop stop-opacity="1" stop-color="rgb(0.524902%, 61.065674%, 82.977295%)" offset="0.59375"/><stop stop-opacity="1" stop-color="rgb(0.549316%, 60.758972%, 82.804871%)" offset="0.609375"/><stop stop-opacity="1" stop-color="rgb(0.57373%, 60.452271%, 82.633972%)" offset="0.625"/><stop stop-opacity="1" stop-color="rgb(0.598145%, 60.145569%, 82.463074%)" offset="0.640625"/><stop stop-opacity="1" stop-color="rgb(0.624084%, 59.840393%, 82.290649%)" offset="0.65625"/><stop stop-opacity="1" stop-color="rgb(0.648499%, 59.533691%, 82.119751%)" offset="0.671875"/><stop stop-opacity="1" stop-color="rgb(0.672913%, 59.22699%, 81.947327%)" offset="0.6875"/><stop stop-opacity="1" stop-color="rgb(0.697327%, 58.920288%, 81.776428%)" offset="0.703125"/><stop stop-opacity="1" stop-color="rgb(0.721741%, 58.613586%, 81.60553%)" offset="0.71875"/><stop stop-opacity="1" stop-color="rgb(0.746155%, 58.306885%, 81.433105%)" offset="0.734375"/><stop stop-opacity="1" stop-color="rgb(0.772095%, 58.000183%, 81.262207%)" offset="0.75"/><stop stop-opacity="1" stop-color="rgb(0.796509%, 57.695007%, 81.089783%)" offset="0.765625"/><stop stop-opacity="1" stop-color="rgb(0.820923%, 57.388306%, 80.918884%)" offset="0.78125"/><stop stop-opacity="1" stop-color="rgb(0.845337%, 57.081604%, 80.747986%)" offset="0.796875"/><stop stop-opacity="1" stop-color="rgb(0.869751%, 56.774902%, 80.575562%)" offset="0.8125"/><stop stop-opacity="1" stop-color="rgb(0.894165%, 56.468201%, 80.404663%)" offset="0.828125"/><stop stop-opacity="1" stop-color="rgb(0.920105%, 56.161499%, 80.232239%)" offset="0.84375"/><stop stop-opacity="1" stop-color="rgb(0.944519%, 55.854797%, 80.06134%)" offset="0.859375"/><stop stop-opacity="1" stop-color="rgb(0.968933%, 55.549622%, 79.890442%)" offset="0.875"/><stop stop-opacity="1" stop-color="rgb(0.993347%, 55.24292%, 79.718018%)" offset="0.890625"/><stop stop-opacity="1" stop-color="rgb(1.017761%, 54.936218%, 79.547119%)" offset="0.90625"/><stop stop-opacity="1" stop-color="rgb(1.042175%, 54.629517%, 79.374695%)" offset="0.921875"/><stop stop-opacity="1" stop-color="rgb(1.068115%, 54.322815%, 79.203796%)" offset="0.9375"/><stop stop-opacity="1" stop-color="rgb(1.092529%, 54.016113%, 79.032898%)" offset="0.953125"/><stop stop-opacity="1" stop-color="rgb(1.116943%, 53.709412%, 78.860474%)" offset="0.96875"/><stop stop-opacity="1" stop-color="rgb(1.141357%, 53.404236%, 78.689575%)" offset="0.984375"/><stop stop-opacity="1" stop-color="rgb(1.165771%, 53.097534%, 78.517151%)" offset="1"/></linearGradient><clipPath id="684933b2e2"><rect x="0" width="27" y="0" height="26"/></clipPath><clipPath id="c76522e776"><path d="M 4.46875 3.539062 L 22.238281 3.539062 L 22.238281 21.988281 L 4.46875 21.988281 Z M 4.46875 3.539062 " clip-rule="nonzero"/></clipPath><clipPath id="dbe8973e52"><rect x="0" width="27" y="0" height="26"/></clipPath></defs><g transform="matrix(1, 0, 0, 1, 34, 6)"><g clip-path="url(#073b3e4689)"><g clip-path="url(#28c59139ca)"><g transform="matrix(1, 0, 0, 1, 46, 9)"><g clip-path="url(#29318f5eb4)"><g fill="#000000" fill-opacity="1"><g transform="translate(1.229934, 11.04412)"><g><path d="M 5.46875 0.171875 C 4.582031 0.171875 3.757812 -0.0390625 3 -0.46875 C 2.25 -0.90625 1.648438 -1.492188 1.203125 -2.234375 C 0.765625 -2.984375 0.546875 -3.800781 0.546875 -4.6875 C 0.546875 -5.582031 0.765625 -6.398438 1.203125 -7.140625 C 1.648438 -7.890625 2.242188 -8.476562 2.984375 -8.90625 C 3.734375 -9.332031 4.554688 -9.546875 5.453125 -9.546875 C 6.023438 -9.546875 6.597656 -9.441406 7.171875 -9.234375 C 7.742188 -9.023438 8.253906 -8.722656 8.703125 -8.328125 C 9.160156 -7.941406 9.507812 -7.492188 9.75 -6.984375 L 8.703125 -6.984375 C 8.347656 -7.515625 7.875 -7.929688 7.28125 -8.234375 C 6.695312 -8.546875 6.082031 -8.703125 5.4375 -8.703125 C 4.75 -8.703125 4.097656 -8.515625 3.484375 -8.140625 C 2.878906 -7.773438 2.394531 -7.28125 2.03125 -6.65625 C 1.664062 -6.039062 1.484375 -5.378906 1.484375 -4.671875 C 1.484375 -3.984375 1.664062 -3.332031 2.03125 -2.71875 C 2.40625 -2.101562 2.894531 -1.609375 3.5 -1.234375 C 4.113281 -0.867188 4.765625 -0.6875 5.453125 -0.6875 C 6.085938 -0.6875 6.6875 -0.835938 7.25 -1.140625 C 7.8125 -1.453125 8.304688 -1.894531 8.734375 -2.46875 L 9.796875 -2.46875 C 9.335938 -1.644531 8.722656 -1 7.953125 -0.53125 C 7.179688 -0.0625 6.351562 0.171875 5.46875 0.171875 Z M 5.46875 0.171875 "/></g></g></g><g fill="#000000" fill-opacity="1"><g transform="translate(11.557782, 11.04412)"><g><path d="M 1.984375 -9.40625 L 1.984375 -0.84375 L 5.875 -0.84375 L 5.875 0 L 1.046875 0 L 1.046875 -9.40625 Z M 1.984375 -9.40625 "/></g></g></g><g fill="#000000" fill-opacity="1"><g transform="translate(17.426743, 11.04412)"><g><path d="M 7.359375 -3.4375 C 7.359375 -2.664062 7.21875 -2.007812 6.9375 -1.46875 C 6.664062 -0.925781 6.285156 -0.515625 5.796875 -0.234375 C 5.316406 0.0351562 4.769531 0.171875 4.15625 0.171875 C 3.539062 0.171875 2.992188 0.0351562 2.515625 -0.234375 C 2.035156 -0.503906 1.65625 -0.910156 1.375 -1.453125 C 1.09375 -2.003906 0.953125 -2.675781 0.953125 -3.46875 L 0.953125 -9.40625 L 1.890625 -9.40625 L 1.890625 -3.421875 C 1.890625 -2.523438 2.097656 -1.84375 2.515625 -1.375 C 2.941406 -0.914062 3.488281 -0.6875 4.15625 -0.6875 C 4.78125 -0.6875 5.3125 -0.90625 5.75 -1.34375 C 6.195312 -1.78125 6.421875 -2.46875 6.421875 -3.40625 L 6.421875 -9.40625 L 7.359375 -9.40625 Z M 7.359375 -3.4375 "/></g></g></g><g fill="#000000" fill-opacity="1"><g transform="translate(25.747461, 11.04412)"><g><path d="M 3.359375 -9.40625 C 3.992188 -9.40625 4.535156 -9.296875 4.984375 -9.078125 C 5.441406 -8.859375 5.785156 -8.5625 6.015625 -8.1875 C 6.253906 -7.8125 6.375 -7.378906 6.375 -6.890625 C 6.375 -6.503906 6.296875 -6.164062 6.140625 -5.875 C 5.984375 -5.59375 5.71875 -5.300781 5.34375 -5 C 5.832031 -4.800781 6.210938 -4.492188 6.484375 -4.078125 C 6.765625 -3.660156 6.90625 -3.195312 6.90625 -2.6875 C 6.90625 -1.90625 6.644531 -1.257812 6.125 -0.75 C 5.601562 -0.25 4.804688 0 3.734375 0 L 0.9375 0 L 0.9375 -9.40625 Z M 5.4375 -6.9375 C 5.4375 -7.394531 5.265625 -7.773438 4.921875 -8.078125 C 4.578125 -8.390625 4.035156 -8.546875 3.296875 -8.546875 L 1.875 -8.546875 L 1.875 -5.34375 L 3.359375 -5.34375 C 4.097656 -5.34375 4.628906 -5.5 4.953125 -5.8125 C 5.273438 -6.125 5.4375 -6.5 5.4375 -6.9375 Z M 5.96875 -2.6875 C 5.96875 -3.226562 5.753906 -3.664062 5.328125 -4 C 4.910156 -4.332031 4.351562 -4.5 3.65625 -4.5 L 1.875 -4.5 L 1.875 -0.84375 L 3.65625 -0.84375 C 4.320312 -0.84375 4.875 -0.988281 5.3125 -1.28125 C 5.75 -1.582031 5.96875 -2.050781 5.96875 -2.6875 Z M 5.96875 -2.6875 "/></g></g></g><g fill="#000000" fill-opacity="1"><g transform="translate(33.039204, 11.04412)"><g><path d="M 5.515625 0.171875 C 4.660156 0.171875 3.847656 -0.0390625 3.078125 -0.46875 C 2.316406 -0.90625 1.703125 -1.488281 1.234375 -2.21875 C 0.773438 -2.957031 0.546875 -3.769531 0.546875 -4.65625 C 0.546875 -5.539062 0.765625 -6.359375 1.203125 -7.109375 C 1.648438 -7.867188 2.253906 -8.46875 3.015625 -8.90625 C 3.773438 -9.34375 4.609375 -9.5625 5.515625 -9.5625 C 6.410156 -9.5625 7.238281 -9.34375 8 -8.90625 C 8.757812 -8.46875 9.363281 -7.875 9.8125 -7.125 C 10.269531 -6.382812 10.5 -5.578125 10.5 -4.703125 C 10.5 -3.828125 10.269531 -3.015625 9.8125 -2.265625 C 9.363281 -1.523438 8.757812 -0.929688 8 -0.484375 C 7.238281 -0.046875 6.410156 0.171875 5.515625 0.171875 Z M 5.5 -8.71875 C 4.769531 -8.71875 4.097656 -8.53125 3.484375 -8.15625 C 2.867188 -7.78125 2.378906 -7.28125 2.015625 -6.65625 C 1.660156 -6.039062 1.484375 -5.375 1.484375 -4.65625 C 1.484375 -3.957031 1.664062 -3.300781 2.03125 -2.6875 C 2.40625 -2.082031 2.898438 -1.597656 3.515625 -1.234375 C 4.140625 -0.867188 4.804688 -0.6875 5.515625 -0.6875 C 6.253906 -0.6875 6.929688 -0.867188 7.546875 -1.234375 C 8.160156 -1.597656 8.644531 -2.085938 9 -2.703125 C 9.363281 -3.316406 9.546875 -3.976562 9.546875 -4.6875 C 9.546875 -5.394531 9.363281 -6.054688 9 -6.671875 C 8.644531 -7.296875 8.15625 -7.789062 7.53125 -8.15625 C 6.914062 -8.53125 6.238281 -8.71875 5.5 -8.71875 Z M 5.5 -8.71875 "/></g></g></g><g fill="#000000" fill-opacity="1"><g transform="translate(44.078437, 11.04412)"><g><path d="M 1.890625 -8.265625 L 1.890625 0 L 0.953125 0 L 0.953125 -9.40625 L 2.21875 -9.40625 L 7.46875 -1.59375 L 7.5 -1.59375 L 7.5 -9.40625 L 8.4375 -9.40625 L 8.4375 0 L 7.5 0 L 1.921875 -8.265625 Z M 1.890625 -8.265625 "/></g></g></g><g fill="#000000" fill-opacity="1"><g transform="translate(53.478941, 11.04412)"><g><path d="M 1.984375 -9.40625 L 1.984375 -0.84375 L 5.875 -0.84375 L 5.875 0 L 1.046875 0 L 1.046875 -9.40625 Z M 1.984375 -9.40625 "/></g></g></g><g fill="#000000" fill-opacity="1"><g transform="translate(59.347902, 11.04412)"><g><path d="M 0.015625 -9.40625 L 1.046875 -9.40625 L 3.734375 -4.125 L 6.484375 -9.40625 L 7.515625 -9.40625 L 4.21875 -3.140625 L 4.21875 0 L 3.28125 0 L 3.28125 -3.140625 Z M 0.015625 -9.40625 "/></g></g></g></g></g></g><g clip-path="url(#6592e6b226)"><g><g clip-path="url(#f53fb0bab4)"><g clip-path="url(#4f314b5a22)"><g fill="#0088c9" fill-opacity="1"><g transform="translate(0.799404, 20.945918)"><g><path d="M 41.65625 -20.203125 C 41.707031 -20.128906 41.734375 -20.070312 41.734375 -20.03125 C 41.734375 -19.96875 41.707031 -19.910156 41.65625 -19.859375 C 41.65625 -19.859375 41.644531 -19.851562 41.625 -19.84375 C 41.613281 -19.84375 41.601562 -19.828125 41.59375 -19.796875 C 41.507812 -19.703125 41.332031 -19.53125 41.0625 -19.28125 C 40.789062 -19.03125 40.40625 -18.742188 39.90625 -18.421875 C 39.414062 -18.109375 38.785156 -17.800781 38.015625 -17.5 C 37.242188 -17.195312 36.320312 -16.941406 35.25 -16.734375 C 34.175781 -16.535156 32.929688 -16.4375 31.515625 -16.4375 C 30.335938 -16.4375 29.207031 -16.519531 28.125 -16.6875 C 27.039062 -16.863281 25.984375 -17.0625 24.953125 -17.28125 C 23.929688 -17.507812 22.910156 -17.710938 21.890625 -17.890625 C 20.867188 -18.078125 19.835938 -18.179688 18.796875 -18.203125 L 18.40625 -18.203125 C 16.8125 -18.203125 15.300781 -17.992188 13.875 -17.578125 C 12.457031 -17.171875 11.15625 -16.632812 9.96875 -15.96875 C 8.789062 -15.3125 7.765625 -14.601562 6.890625 -13.84375 C 6.015625 -13.09375 5.332031 -12.367188 4.84375 -11.671875 C 4.332031 -10.929688 3.894531 -10.25 3.53125 -9.625 C 3.175781 -9.007812 2.910156 -8.515625 2.734375 -8.140625 C 2.554688 -7.773438 2.46875 -7.59375 2.46875 -7.59375 L 1.953125 -6.28125 C 1.921875 -6.175781 1.890625 -6.078125 1.859375 -5.984375 C 1.835938 -5.898438 1.8125 -5.8125 1.78125 -5.71875 C 1.664062 -5.320312 1.578125 -4.929688 1.515625 -4.546875 C 1.453125 -4.160156 1.421875 -3.796875 1.421875 -3.453125 C 1.421875 -2.804688 1.535156 -2.238281 1.765625 -1.75 C 1.835938 -1.582031 1.953125 -1.421875 2.109375 -1.265625 C 2.273438 -1.109375 2.484375 -0.984375 2.734375 -0.890625 C 2.847656 -0.867188 2.96875 -0.847656 3.09375 -0.828125 C 3.21875 -0.816406 3.335938 -0.8125 3.453125 -0.8125 C 3.984375 -0.8125 4.515625 -0.941406 5.046875 -1.203125 C 5.578125 -1.460938 6.09375 -1.8125 6.59375 -2.25 C 7.3125 -2.894531 7.9375 -3.644531 8.46875 -4.5 C 9.007812 -5.351562 9.441406 -6.191406 9.765625 -7.015625 C 9.953125 -7.453125 10.085938 -7.878906 10.171875 -8.296875 C 10.253906 -8.710938 10.3125 -9.054688 10.34375 -9.328125 C 10.375 -9.597656 10.390625 -9.734375 10.390625 -9.734375 L 10.390625 -9.828125 C 10.421875 -9.992188 10.476562 -10.128906 10.5625 -10.234375 C 10.644531 -10.347656 10.769531 -10.40625 10.9375 -10.40625 C 11.21875 -10.382812 11.359375 -10.195312 11.359375 -9.84375 L 11.359375 -9.734375 C 11.359375 -9.691406 11.347656 -9.632812 11.328125 -9.5625 C 11.234375 -9.15625 11.101562 -8.742188 10.9375 -8.328125 C 10.78125 -7.910156 10.625 -7.523438 10.46875 -7.171875 C 10.3125 -6.828125 10.175781 -6.546875 10.0625 -6.328125 C 9.957031 -6.117188 9.90625 -6.015625 9.90625 -6.015625 C 9.5625 -5.285156 9.140625 -4.554688 8.640625 -3.828125 C 8.140625 -3.097656 7.566406 -2.445312 6.921875 -1.875 C 6.328125 -1.34375 5.707031 -0.925781 5.0625 -0.625 C 4.414062 -0.332031 3.765625 -0.1875 3.109375 -0.1875 C 3.035156 -0.1875 2.960938 -0.1875 2.890625 -0.1875 C 2.828125 -0.1875 2.753906 -0.195312 2.671875 -0.21875 C 1.609375 -0.289062 0.875 -0.71875 0.46875 -1.5 C 0.175781 -2.09375 0.0195312 -2.804688 0 -3.640625 C 0 -3.640625 0 -3.660156 0 -3.703125 C 0 -3.742188 0 -3.804688 0 -3.890625 C 0 -4.128906 0.03125 -4.507812 0.09375 -5.03125 C 0.15625 -5.550781 0.289062 -6.1875 0.5 -6.9375 C 0.71875 -7.6875 1.054688 -8.523438 1.515625 -9.453125 C 1.972656 -10.378906 2.597656 -11.359375 3.390625 -12.390625 C 3.441406 -12.453125 3.609375 -12.640625 3.890625 -12.953125 C 4.171875 -13.265625 4.5625 -13.648438 5.0625 -14.109375 C 5.5625 -14.566406 6.171875 -15.046875 6.890625 -15.546875 C 7.609375 -16.054688 8.429688 -16.539062 9.359375 -17 C 10.296875 -17.457031 11.332031 -17.84375 12.46875 -18.15625 C 13.601562 -18.476562 14.835938 -18.675781 16.171875 -18.75 C 16.617188 -18.800781 17.050781 -18.835938 17.46875 -18.859375 C 17.894531 -18.878906 18.316406 -18.890625 18.734375 -18.890625 C 19.722656 -18.890625 20.691406 -18.835938 21.640625 -18.734375 C 22.597656 -18.628906 23.554688 -18.503906 24.515625 -18.359375 C 25.597656 -18.203125 26.710938 -18.050781 27.859375 -17.90625 C 29.003906 -17.757812 30.222656 -17.679688 31.515625 -17.671875 L 31.671875 -17.671875 C 33.347656 -17.671875 34.789062 -17.796875 36 -18.046875 C 37.207031 -18.296875 38.203125 -18.585938 38.984375 -18.921875 C 39.765625 -19.253906 40.34375 -19.550781 40.71875 -19.8125 C 41.101562 -20.070312 41.296875 -20.207031 41.296875 -20.21875 C 41.335938 -20.257812 41.390625 -20.28125 41.453125 -20.28125 C 41.546875 -20.28125 41.613281 -20.253906 41.65625 -20.203125 Z M 23.40625 -16.15625 L 23.625 -16.15625 C 23.738281 -16.101562 23.796875 -16 23.796875 -15.84375 C 23.773438 -15.789062 23.726562 -15.75 23.65625 -15.71875 C 23.59375 -15.6875 23.53125 -15.671875 23.46875 -15.671875 C 23.382812 -15.671875 23.175781 -15.617188 22.84375 -15.515625 C 22.519531 -15.421875 22.097656 -15.113281 21.578125 -14.59375 C 20.929688 -13.96875 20.382812 -13.238281 19.9375 -12.40625 C 19.5 -11.570312 19.039062 -10.734375 18.5625 -9.890625 C 18.351562 -9.554688 18.144531 -9.207031 17.9375 -8.84375 C 17.738281 -8.488281 17.53125 -8.117188 17.3125 -7.734375 L 16.890625 -7 C 17.304688 -6.9375 17.675781 -6.878906 18 -6.828125 C 18.332031 -6.785156 18.632812 -6.765625 18.90625 -6.765625 C 19.40625 -6.765625 19.832031 -6.84375 20.1875 -7 C 20.550781 -7.15625 20.910156 -7.398438 21.265625 -7.734375 C 21.304688 -7.773438 21.359375 -7.796875 21.421875 -7.796875 C 21.503906 -7.796875 21.570312 -7.769531 21.625 -7.71875 C 21.65625 -7.675781 21.671875 -7.625 21.671875 -7.5625 C 21.671875 -7.488281 21.644531 -7.425781 21.59375 -7.375 C 21.125 -6.914062 20.625 -6.566406 20.09375 -6.328125 C 19.570312 -6.085938 18.910156 -5.96875 18.109375 -5.96875 C 17.867188 -5.96875 17.601562 -5.976562 17.3125 -6 C 17.03125 -6.03125 16.722656 -6.070312 16.390625 -6.125 C 15.398438 -4.445312 14.519531 -3.007812 13.75 -1.8125 C 12.988281 -0.613281 12.300781 0.378906 11.6875 1.171875 C 11.082031 1.960938 10.523438 2.597656 10.015625 3.078125 C 9.515625 3.554688 9.03125 3.914062 8.5625 4.15625 C 8.101562 4.394531 7.632812 4.566406 7.15625 4.671875 C 6.769531 4.753906 6.40625 4.796875 6.0625 4.796875 C 5.394531 4.796875 4.875 4.703125 4.5 4.515625 C 4.132812 4.328125 3.867188 4.101562 3.703125 3.84375 C 3.535156 3.59375 3.429688 3.359375 3.390625 3.140625 C 3.347656 2.921875 3.328125 2.78125 3.328125 2.71875 C 3.328125 2.65625 3.363281 2.597656 3.4375 2.546875 C 3.519531 2.492188 3.570312 2.46875 3.59375 2.46875 C 3.738281 2.46875 3.8125 2.550781 3.8125 2.71875 C 3.8125 2.726562 3.828125 2.8125 3.859375 2.96875 C 3.898438 3.132812 3.984375 3.316406 4.109375 3.515625 C 4.242188 3.710938 4.457031 3.882812 4.75 4.03125 C 4.789062 4.039062 4.898438 4.078125 5.078125 4.140625 C 5.265625 4.210938 5.492188 4.25 5.765625 4.25 C 5.867188 4.25 5.976562 4.238281 6.09375 4.21875 C 6.21875 4.207031 6.34375 4.1875 6.46875 4.15625 C 6.832031 4.050781 7.222656 3.851562 7.640625 3.5625 C 8.054688 3.28125 8.523438 2.84375 9.046875 2.25 C 9.578125 1.65625 10.1875 0.863281 10.875 -0.125 C 11.570312 -1.125 12.378906 -2.390625 13.296875 -3.921875 C 13.296875 -3.898438 13.359375 -4.003906 13.484375 -4.234375 C 13.609375 -4.472656 13.753906 -4.75 13.921875 -5.0625 C 14.097656 -5.375 14.25 -5.65625 14.375 -5.90625 C 14.507812 -6.164062 14.578125 -6.316406 14.578125 -6.359375 C 14.578125 -6.359375 14.503906 -6.367188 14.359375 -6.390625 C 14.210938 -6.410156 14.070312 -6.421875 13.9375 -6.421875 C 13.289062 -6.421875 12.757812 -6.351562 12.34375 -6.21875 C 11.9375 -6.082031 11.648438 -6.015625 11.484375 -6.015625 C 11.460938 -6.015625 11.445312 -6.003906 11.4375 -5.984375 C 11.425781 -5.972656 11.421875 -5.96875 11.421875 -5.96875 C 11.367188 -5.945312 11.332031 -5.9375 11.3125 -5.9375 C 11.207031 -5.9375 11.132812 -5.972656 11.09375 -6.046875 C 11.0625 -6.097656 11.046875 -6.144531 11.046875 -6.1875 C 11.046875 -6.28125 11.085938 -6.351562 11.171875 -6.40625 C 11.191406 -6.414062 11.347656 -6.492188 11.640625 -6.640625 C 11.941406 -6.785156 12.351562 -6.929688 12.875 -7.078125 C 13.40625 -7.222656 14.003906 -7.296875 14.671875 -7.296875 C 14.773438 -7.296875 14.875 -7.296875 14.96875 -7.296875 C 15.070312 -7.296875 15.171875 -7.285156 15.265625 -7.265625 L 16.4375 -9.3125 C 16.4375 -9.332031 16.445312 -9.347656 16.46875 -9.359375 C 16.53125 -9.484375 16.660156 -9.710938 16.859375 -10.046875 C 17.054688 -10.378906 17.304688 -10.773438 17.609375 -11.234375 C 17.929688 -11.722656 18.28125 -12.226562 18.65625 -12.75 C 19.03125 -13.269531 19.4375 -13.765625 19.875 -14.234375 C 20.3125 -14.710938 20.785156 -15.117188 21.296875 -15.453125 C 21.816406 -15.785156 22.390625 -16.015625 23.015625 -16.140625 C 23.078125 -16.148438 23.144531 -16.15625 23.21875 -16.15625 C 23.289062 -16.15625 23.351562 -16.15625 23.40625 -16.15625 Z M 23.40625 -16.15625 "/></g></g></g></g><g fill="#0088c9" fill-opacity="1"><g transform="translate(19.203964, 20.945918)"><g><path d="M 11.515625 -4.765625 C 11.597656 -4.734375 11.640625 -4.664062 11.640625 -4.5625 C 11.640625 -4.507812 11.628906 -4.46875 11.609375 -4.4375 C 11.210938 -3.726562 10.785156 -3.03125 10.328125 -2.34375 C 9.867188 -1.65625 9.367188 -1.09375 8.828125 -0.65625 C 8.285156 -0.21875 7.6875 0 7.03125 0 C 6.40625 0 5.90625 -0.15625 5.53125 -0.46875 C 5.15625 -0.789062 4.96875 -1.25 4.96875 -1.84375 C 4.96875 -1.894531 4.96875 -1.945312 4.96875 -2 C 4.96875 -2.0625 4.972656 -2.117188 4.984375 -2.171875 C 4.492188 -1.492188 3.988281 -0.960938 3.46875 -0.578125 C 2.945312 -0.203125 2.441406 -0.0078125 1.953125 0 L 1.875 0 C 1.414062 0 1.046875 -0.101562 0.765625 -0.3125 C 0.484375 -0.53125 0.285156 -0.800781 0.171875 -1.125 C 0.0546875 -1.445312 0 -1.785156 0 -2.140625 C 0 -2.210938 0 -2.285156 0 -2.359375 C 0 -2.429688 0.00390625 -2.5 0.015625 -2.5625 C 0.0976562 -3.113281 0.253906 -3.707031 0.484375 -4.34375 C 0.710938 -4.976562 1.015625 -5.597656 1.390625 -6.203125 C 1.972656 -7.148438 2.535156 -7.890625 3.078125 -8.421875 C 3.617188 -8.960938 4.132812 -9.34375 4.625 -9.5625 C 5.113281 -9.78125 5.554688 -9.890625 5.953125 -9.890625 C 6.117188 -9.890625 6.269531 -9.875 6.40625 -9.84375 C 6.550781 -9.8125 6.691406 -9.769531 6.828125 -9.71875 C 7.097656 -9.613281 7.289062 -9.441406 7.40625 -9.203125 C 7.53125 -8.960938 7.59375 -8.675781 7.59375 -8.34375 C 7.59375 -8.21875 7.585938 -8.09375 7.578125 -7.96875 C 7.566406 -7.851562 7.550781 -7.722656 7.53125 -7.578125 L 8.71875 -9.734375 L 10.328125 -9.734375 L 7.5625 -4.796875 C 7.144531 -4.054688 6.84375 -3.453125 6.65625 -2.984375 C 6.46875 -2.515625 6.34375 -2.113281 6.28125 -1.78125 C 6.28125 -1.757812 6.273438 -1.726562 6.265625 -1.6875 C 6.265625 -1.65625 6.265625 -1.625 6.265625 -1.59375 C 6.265625 -1.40625 6.316406 -1.207031 6.421875 -1 C 6.523438 -0.800781 6.71875 -0.664062 7 -0.59375 C 7.039062 -0.582031 7.078125 -0.578125 7.109375 -0.578125 C 7.148438 -0.578125 7.191406 -0.578125 7.234375 -0.578125 C 7.453125 -0.578125 7.695312 -0.640625 7.96875 -0.765625 C 8.25 -0.898438 8.550781 -1.125 8.875 -1.4375 C 9.28125 -1.820312 9.671875 -2.296875 10.046875 -2.859375 C 10.429688 -3.429688 10.804688 -4.035156 11.171875 -4.671875 C 11.222656 -4.765625 11.289062 -4.8125 11.375 -4.8125 C 11.414062 -4.8125 11.460938 -4.796875 11.515625 -4.765625 Z M 3.28125 -1.109375 C 4.03125 -1.660156 4.769531 -2.582031 5.5 -3.875 C 5.625 -4.09375 5.773438 -4.378906 5.953125 -4.734375 C 6.128906 -5.097656 6.300781 -5.488281 6.46875 -5.90625 C 6.644531 -6.320312 6.789062 -6.738281 6.90625 -7.15625 C 7.019531 -7.570312 7.078125 -7.941406 7.078125 -8.265625 C 7.078125 -8.484375 7.046875 -8.671875 6.984375 -8.828125 C 6.921875 -8.992188 6.816406 -9.117188 6.671875 -9.203125 C 6.566406 -9.273438 6.453125 -9.3125 6.328125 -9.3125 C 6.015625 -9.3125 5.660156 -9.148438 5.265625 -8.828125 C 4.878906 -8.515625 4.484375 -8.101562 4.078125 -7.59375 C 3.671875 -7.082031 3.296875 -6.535156 2.953125 -5.953125 C 2.597656 -5.359375 2.296875 -4.765625 2.046875 -4.171875 C 1.796875 -3.585938 1.628906 -3.03125 1.546875 -2.5 C 1.515625 -2.289062 1.5 -2.09375 1.5 -1.90625 C 1.5 -1.5 1.570312 -1.195312 1.71875 -1 C 1.875 -0.8125 2.078125 -0.71875 2.328125 -0.71875 C 2.597656 -0.71875 2.914062 -0.847656 3.28125 -1.109375 Z M 3.28125 -1.109375 "/></g></g></g><g fill="#0088c9" fill-opacity="1"><g transform="translate(29.501986, 20.945918)"><g><path d="M 12.78125 -4.796875 C 12.851562 -4.753906 12.890625 -4.679688 12.890625 -4.578125 C 12.890625 -4.523438 12.882812 -4.484375 12.875 -4.453125 C 12.050781 -2.992188 11.203125 -1.882812 10.328125 -1.125 C 9.460938 -0.375 8.546875 0 7.578125 0 C 7.140625 0 6.78125 -0.0625 6.5 -0.1875 C 6.226562 -0.320312 6.039062 -0.492188 5.9375 -0.703125 C 5.820312 -0.921875 5.765625 -1.164062 5.765625 -1.4375 C 5.765625 -1.925781 5.945312 -2.519531 6.3125 -3.21875 C 6.675781 -3.925781 7.21875 -4.75 7.9375 -5.6875 L 8.140625 -5.953125 C 8.359375 -6.234375 8.601562 -6.554688 8.875 -6.921875 C 9.144531 -7.296875 9.378906 -7.660156 9.578125 -8.015625 C 9.773438 -8.367188 9.875 -8.671875 9.875 -8.921875 C 9.875 -9.160156 9.75 -9.28125 9.5 -9.28125 C 9.476562 -9.28125 9.445312 -9.273438 9.40625 -9.265625 C 9.375 -9.265625 9.347656 -9.265625 9.328125 -9.265625 C 9.078125 -9.222656 8.820312 -9.140625 8.5625 -9.015625 C 8.3125 -8.890625 8.050781 -8.726562 7.78125 -8.53125 C 7.039062 -7.988281 6.375 -7.378906 5.78125 -6.703125 C 5.1875 -6.023438 4.6875 -5.375 4.28125 -4.75 C 3.875 -4.125 3.566406 -3.632812 3.359375 -3.28125 C 3.359375 -3.28125 3.34375 -3.253906 3.3125 -3.203125 C 3.289062 -3.160156 3.226562 -3.046875 3.125 -2.859375 C 3.019531 -2.671875 2.847656 -2.363281 2.609375 -1.9375 C 2.367188 -1.519531 2.03125 -0.925781 1.59375 -0.15625 L 0 -0.15625 L 5.359375 -9.734375 L 6.96875 -9.734375 L 5.453125 -7.015625 C 5.878906 -7.503906 6.332031 -7.96875 6.8125 -8.40625 C 7.289062 -8.851562 7.773438 -9.210938 8.265625 -9.484375 C 8.765625 -9.753906 9.253906 -9.890625 9.734375 -9.890625 C 9.941406 -9.890625 10.140625 -9.863281 10.328125 -9.8125 C 10.523438 -9.757812 10.675781 -9.644531 10.78125 -9.46875 C 10.84375 -9.375 10.890625 -9.269531 10.921875 -9.15625 C 10.953125 -9.050781 10.96875 -8.921875 10.96875 -8.765625 C 10.96875 -8.429688 10.859375 -7.988281 10.640625 -7.4375 C 10.421875 -6.882812 10.03125 -6.207031 9.46875 -5.40625 C 9.09375 -4.863281 8.695312 -4.296875 8.28125 -3.703125 C 7.863281 -3.117188 7.546875 -2.597656 7.328125 -2.140625 C 7.171875 -1.804688 7.09375 -1.53125 7.09375 -1.3125 C 7.09375 -1.070312 7.171875 -0.894531 7.328125 -0.78125 C 7.484375 -0.675781 7.6875 -0.625 7.9375 -0.625 C 8.1875 -0.625 8.472656 -0.679688 8.796875 -0.796875 C 9.117188 -0.921875 9.441406 -1.109375 9.765625 -1.359375 C 10.222656 -1.703125 10.675781 -2.148438 11.125 -2.703125 C 11.570312 -3.253906 12.003906 -3.914062 12.421875 -4.6875 C 12.472656 -4.78125 12.546875 -4.828125 12.640625 -4.828125 C 12.679688 -4.828125 12.726562 -4.816406 12.78125 -4.796875 Z M 12.78125 -4.796875 "/></g></g></g><g fill="#0088c9" fill-opacity="1"><g transform="translate(41.07999, 20.945918)"><g><path d="M 8.609375 -4.796875 C 8.679688 -4.742188 8.71875 -4.671875 8.71875 -4.578125 C 8.71875 -4.523438 8.710938 -4.484375 8.703125 -4.453125 C 8.171875 -3.515625 7.59375 -2.710938 6.96875 -2.046875 C 6.351562 -1.378906 5.628906 -0.867188 4.796875 -0.515625 C 3.960938 -0.171875 2.972656 0 1.828125 0 C 1.160156 0 0.65625 -0.191406 0.3125 -0.578125 C 0.21875 -0.691406 0.140625 -0.8125 0.078125 -0.9375 C 0.0234375 -1.050781 0 -1.175781 0 -1.3125 C 0 -1.5 0.0351562 -1.660156 0.109375 -1.796875 C 0.179688 -1.941406 0.222656 -2.03125 0.234375 -2.0625 C 0.359375 -2.238281 0.503906 -2.367188 0.671875 -2.453125 C 0.847656 -2.546875 1.007812 -2.59375 1.15625 -2.59375 C 1.25 -2.59375 1.316406 -2.585938 1.359375 -2.578125 C 1.597656 -2.484375 1.71875 -2.289062 1.71875 -2 C 1.71875 -1.90625 1.703125 -1.8125 1.671875 -1.71875 C 1.648438 -1.625 1.609375 -1.523438 1.546875 -1.421875 C 1.472656 -1.273438 1.378906 -1.144531 1.265625 -1.03125 C 1.160156 -0.914062 1.039062 -0.832031 0.90625 -0.78125 C 1.101562 -0.644531 1.359375 -0.578125 1.671875 -0.578125 L 1.84375 -0.578125 C 2.175781 -0.609375 2.5 -0.789062 2.8125 -1.125 C 3.125 -1.457031 3.390625 -1.914062 3.609375 -2.5 C 3.835938 -3.082031 3.984375 -3.757812 4.046875 -4.53125 C 4.140625 -5.539062 4.304688 -6.429688 4.546875 -7.203125 C 4.796875 -7.972656 5.140625 -8.570312 5.578125 -9 C 4.828125 -8.800781 4.195312 -8.492188 3.6875 -8.078125 C 3.175781 -7.660156 2.734375 -7.171875 2.359375 -6.609375 C 1.984375 -6.046875 1.625 -5.445312 1.28125 -4.8125 L 1.0625 -4.4375 C 1.03125 -4.351562 0.960938 -4.3125 0.859375 -4.3125 C 0.828125 -4.3125 0.785156 -4.320312 0.734375 -4.34375 C 0.660156 -4.382812 0.625 -4.457031 0.625 -4.5625 C 0.625 -4.613281 0.628906 -4.648438 0.640625 -4.671875 L 0.859375 -5.0625 C 1.191406 -5.65625 1.535156 -6.226562 1.890625 -6.78125 C 2.253906 -7.34375 2.679688 -7.84375 3.171875 -8.28125 C 3.671875 -8.726562 4.273438 -9.082031 4.984375 -9.34375 C 5.691406 -9.601562 6.550781 -9.734375 7.5625 -9.734375 C 7.726562 -9.734375 7.8125 -9.648438 7.8125 -9.484375 C 7.8125 -9.316406 7.726562 -9.234375 7.5625 -9.234375 C 7.5625 -9.234375 7.554688 -9.234375 7.546875 -9.234375 C 7.546875 -9.234375 7.523438 -9.234375 7.484375 -9.234375 C 7.085938 -9.234375 6.765625 -9.097656 6.515625 -8.828125 C 6.265625 -8.554688 6.078125 -8.191406 5.953125 -7.734375 C 5.835938 -7.285156 5.742188 -6.78125 5.671875 -6.21875 C 5.609375 -5.65625 5.5625 -5.082031 5.53125 -4.5 C 5.457031 -3.625 5.289062 -2.867188 5.03125 -2.234375 C 4.769531 -1.609375 4.425781 -1.113281 4 -0.75 C 4.726562 -0.957031 5.347656 -1.253906 5.859375 -1.640625 C 6.367188 -2.035156 6.8125 -2.492188 7.1875 -3.015625 C 7.5625 -3.535156 7.921875 -4.09375 8.265625 -4.6875 C 8.328125 -4.769531 8.40625 -4.8125 8.5 -4.8125 C 8.550781 -4.8125 8.585938 -4.804688 8.609375 -4.796875 Z M 8.609375 -4.796875 "/></g></g></g></g></g></g></g></g><g transform="matrix(1, 0, 0, 1, 2, 7)"><g clip-path="url(#dbe8973e52)"><g clip-path="url(#ee9b97064d)"><g clip-path="url(#fc430adf5e)"><g><g clip-path="url(#684933b2e2)"><g clip-path="url(#dc7001cb0c)"><g clip-path="url(#198eb3a62d)"><path fill="url(#26e16ec007)" d="M 0.761719 0.570312 L 0.761719 25.125 L 26.085938 25.125 L 26.085938 0.570312 Z M 0.761719 0.570312 " fill-rule="nonzero"/></g></g></g></g></g></g><g clip-path="url(#c76522e776)"><path fill="#ededed" d="M 12.027344 3.539062 C 10.023438 3.539062 8.101562 4.332031 6.6875 5.75 C 5.269531 7.164062 4.476562 9.085938 4.476562 11.089844 C 4.476562 13.089844 5.269531 15.011719 6.6875 16.425781 C 8.101562 17.84375 10.023438 18.640625 12.027344 18.640625 C 13.28125 18.632812 14.519531 18.3125 15.621094 17.707031 L 19.328125 21.476562 C 19.984375 22.140625 21.046875 22.148438 21.710938 21.496094 C 22.375 20.839844 22.386719 19.777344 21.730469 19.113281 L 18.152344 15.472656 C 19.070312 14.195312 19.570312 12.664062 19.578125 11.089844 C 19.578125 9.085938 18.78125 7.164062 17.363281 5.75 C 15.949219 4.332031 14.027344 3.539062 12.027344 3.539062 Z M 12.113281 5.734375 C 13.449219 5.734375 14.734375 6.289062 15.679688 7.28125 C 16.625 8.269531 17.15625 9.613281 17.15625 11.015625 C 17.152344 12.53125 16.527344 13.976562 15.4375 14.976562 C 15.410156 14.996094 15.386719 15.019531 15.363281 15.042969 C 15.351562 15.054688 15.339844 15.070312 15.324219 15.082031 C 14.421875 15.867188 13.285156 16.296875 12.113281 16.296875 C 10.773438 16.296875 9.492188 15.738281 8.542969 14.75 C 7.597656 13.757812 7.066406 12.414062 7.066406 11.015625 C 7.066406 9.613281 7.597656 8.269531 8.542969 7.28125 C 9.492188 6.289062 10.773438 5.734375 12.113281 5.734375 Z M 12.113281 5.734375 " fill-opacity="1" fill-rule="evenodd"/></g></g></g></svg>